<?xml version="1.0" encoding="UTF-8" standalone="no"?>
<svg
   xmlns:dc="http://purl.org/dc/elements/1.1/"
   xmlns:cc="http://creativecommons.org/ns#"
   xmlns:rdf="http://www.w3.org/1999/02/22-rdf-syntax-ns#"
   xmlns:svg="http://www.w3.org/2000/svg"
   xmlns="http://www.w3.org/2000/svg"
   id="svg8"
   version="1.1"
   viewBox="0 0 8.4666659 8.4666659"
   height="32"
   width="32">
  <defs
     id="defs2" />
  <metadata
     id="metadata5">
    <rdf:RDF>
      <cc:Work
         rdf:about="">
        <dc:format>image/svg+xml</dc:format>
        <dc:type
           rdf:resource="http://purl.org/dc/dcmitype/StillImage" />
        <dc:title></dc:title>
      </cc:Work>
    </rdf:RDF>
  </metadata>
  <g
     transform="translate(0,-288.53334)"
     id="layer1">
    <rect
       y="290.64999"
       x="3.1749997"
       height="5.291666"
       width="2.1166666"
       id="rect4535"
       style="opacity:1;fill:#f6e05e;fill-opacity:1;stroke:none;stroke-width:0.19999999;stroke-miterlimit:4;stroke-dasharray:none;stroke-opacity:1;paint-order:stroke fill markers" />
    <path
       id="path4520"
       transform="matrix(0.26458331,0,0,0.26458331,0,288.53334)"
       d="M 4 4 L 4 8 L 8 8 L 8 24 A 7.9999994 6.0000005 0 0 0 16 30 A 7.9999994 6.0000005 0 0 0 24 24 L 24 8 L 28 8 L 28 4 L 24 4 L 20 4 L 20 24 A 4.0000403 3.0000306 0 0 1 16 27 A 4.0000403 3.0000306 0 0 1 12 24 L 12 4 L 8 4 L 4 4 z "
       style="opacity:1;fill:#2c5282;fill-opacity:1;stroke:none;stroke-width:0.75590557;stroke-miterlimit:4;stroke-dasharray:none;stroke-opacity:1;paint-order:stroke fill markers" />
  </g>
</svg>
